<svg xmlns="http://www.w3.org/2000/svg" viewBox="0 0 403.66 131.5" class="js-header-smv-logo header-smv-logo">
    <title>viita_logo</title>
    <polygon
        points="226.94 34.46 252.47 34.46 252.47 116.34 273.09 116.34 273.09 34.46 298.63 34.46 298.63 15.16 226.94 15.16 226.94 34.46"
        class="cls-1"></polygon>
    <path d="M192.24,23.84a11.92,11.92,0,1,0-11.92-11.92A11.93,11.93,0,0,0,192.24,23.84Z" class="cls-1"></path>
    <rect x="182.14" y="34.48" width="20.21" height="81.85" class="cls-1"></rect>
    <polygon points="49.63 87.03 22.12 15.17 0 15.17 38.83 116.33 60.44 116.33 99.25 15.17 77.2 15.17 49.63 87.03"
        class="cls-1"></polygon>
    <polygon
        points="364.83 15.12 343.22 15.12 304.41 116.29 326.46 116.29 354.03 44.43 381.54 116.29 403.66 116.29 364.83 15.12"
        class="cls-1"></polygon>
    <path d="M131.58,107.66a11.92,11.92,0,1,0,11.92,11.92A11.93,11.93,0,0,0,131.58,107.66Z" class="cls-1"></path>
    <rect x="121.48" y="15.16" width="20.21" height="81.85" class="cls-1"></rect>
</svg>