<?xml version="1.0" encoding="utf-8"?>
<!-- Generator: Adobe Illustrator 25.3.1, SVG Export Plug-In . SVG Version: 6.00 Build 0)  -->
<svg version="1.1" id="Layer_1" xmlns="http://www.w3.org/2000/svg" xmlns:xlink="http://www.w3.org/1999/xlink" x="0px" y="0px"
	 viewBox="0 0 500 70" style="enable-background:new 0 0 500 70;" xml:space="preserve">
<style type="text/css">
	.st0{fill:#050505;}
	.st1{fill:#686868;}
</style>
<g>
	<polygon class="st0" points="150.9,2.93 163.49,2.93 178.3,47.82 171.88,66.54 	"/>
	<polygon class="st0" points="6.24,2.93 18.83,2.93 33.62,47.77 27.22,66.54 	"/>
	<polygon class="st0" points="57.53,28.43 51.12,47.15 57.37,66.54 63.78,47.81 	"/>
	<polygon class="st0" points="463.08,15.52 467.39,2.93 414.9,2.93 410.59,15.52 	"/>
	<polygon class="st0" points="479.98,2.93 475.66,15.52 492.38,15.52 496.69,2.93 	"/>
	<polygon class="st0" points="292.51,53.95 288.2,66.54 322.94,66.54 327.26,53.95 	"/>
	<polygon class="st0" points="202.18,28.43 197.86,41.02 228.16,41.02 232.47,28.43 	"/>
	<polygon class="st0" points="193.78,53.95 189.47,66.54 219.77,66.54 224.08,53.95 	"/>
	<polygon class="st0" points="87.26,28.44 82.95,41.03 113.8,41.03 118.11,28.44 	"/>
	<polygon class="st0" points="91.75,2.93 74.84,15.52 122.52,15.52 126.84,2.93 	"/>
	<polygon class="st0" points="78.52,53.95 74.21,66.54 105.06,66.54 109.37,53.95 	"/>
	<polygon class="st0" points="410.89,28.43 406.57,41.02 436.87,41.02 441.18,28.43 	"/>
	<polygon class="st0" points="362.56,66.48 379.47,53.86 345.06,53.95 340.76,66.5 	"/>
	<polygon class="st0" points="362.58,2.92 345.65,15.48 380.01,15.52 384.33,2.93 	"/>
	<polygon class="st0" points="275.9,15.52 280.21,2.93 258.9,2.93 254.58,15.52 	"/>
	<polygon class="st0" points="271.48,28.43 250.17,28.43 245.85,41.02 267.16,41.02 	"/>
	<polygon class="st0" points="206.26,2.93 189.36,15.52 237.4,15.52 241.71,2.93 	"/>
	<polygon class="st0" points="145.61,2.97 139.2,21.69 145.67,41.31 158.26,41.31 	"/>
	<polygon class="st1" points="258.9,2.93 237.11,66.54 224.52,66.54 242,15.52 	"/>
	<polygon class="st1" points="201.95,15.52 184.47,66.54 171.88,66.54 189.36,15.52 	"/>
	<polygon class="st1" points="297.4,2.93 309.99,2.93 288.2,66.54 279.92,53.95 	"/>
	<polygon class="st1" points="358.23,15.52 340.76,66.5 332.5,53.88 345.65,15.48 	"/>
	<polygon class="st1" points="384.35,2.88 392.62,15.46 379.47,53.86 366.86,53.92 	"/>
	<polygon class="st1" points="414.9,2.93 393.11,66.54 380.52,66.54 398,15.52 	"/>
	<polygon class="st1" points="467.39,2.93 475.66,15.52 458.19,66.54 445.6,66.54 	"/>
	<polygon class="st1" points="42.29,22.24 54.88,22.24 39.83,66.54 27.24,66.54 	"/>
	<polygon class="st1" points="87.43,15.52 69.95,66.54 57.36,66.54 74.84,15.52 	"/>
	<polygon class="st1" points="133.04,2.93 145.63,2.93 123.84,66.54 111.25,66.54 	"/>
	<polygon class="st1" points="280.21,2.93 288.49,15.52 284.07,28.43 271.48,28.43 279.75,41.02 271.01,66.54 258.42,66.54 	"/>
	<polygon class="st1" points="158.26,41.31 137.91,41.31 133.6,53.89 149.82,53.89 	"/>
</g>
</svg>
